<svg width="18" height="12" viewBox="0 0 18 12" fill="none" xmlns="http://www.w3.org/2000/svg">
<path fill-rule="evenodd" clip-rule="evenodd" d="M5.78136 0.968997C5.85121 1.03867 5.90662 1.12143 5.94443 1.21255C5.98224 1.30366 6.0017 1.40135 6.0017 1.5C6.0017 1.59865 5.98224 1.69633 5.94443 1.78745C5.90662 1.87857 5.85121 1.96133 5.78136 2.031L1.81086 6L5.78136 9.969C5.8511 10.0387 5.90641 10.1215 5.94415 10.2126C5.98189 10.3037 6.00131 10.4014 6.00131 10.5C6.00131 10.5986 5.98189 10.6963 5.94415 10.7874C5.90641 10.8785 5.8511 10.9613 5.78136 11.031C5.71163 11.1007 5.62885 11.156 5.53774 11.1938C5.44663 11.2315 5.34898 11.2509 5.25036 11.2509C5.15175 11.2509 5.0541 11.2315 4.96299 11.1938C4.87188 11.156 4.7891 11.1007 4.71936 11.031L0.219364 6.531C0.149519 6.46133 0.0941051 6.37856 0.0562954 6.28745C0.0184857 6.19633 -0.000976562 6.09865 -0.000976562 6C-0.000976563 5.90135 0.0184857 5.80366 0.0562954 5.71255C0.0941051 5.62143 0.149519 5.53867 0.219364 5.469L4.71936 0.968997C4.78903 0.899153 4.8718 0.843738 4.96291 0.805928C5.05403 0.768119 5.15171 0.748657 5.25036 0.748657C5.34902 0.748657 5.4467 0.768119 5.53781 0.805928C5.62893 0.843738 5.7117 0.899153 5.78136 0.968997Z" fill="white"/>
<path fill-rule="evenodd" clip-rule="evenodd" d="M0.750406 6.00001C0.750406 5.8011 0.829423 5.61033 0.970076 5.46968C1.11073 5.32903 1.30149 5.25001 1.50041 5.25001H17.2504C17.4493 5.25001 17.6401 5.32903 17.7807 5.46968C17.9214 5.61033 18.0004 5.8011 18.0004 6.00001C18.0004 6.19892 17.9214 6.38969 17.7807 6.53034C17.6401 6.67099 17.4493 6.75001 17.2504 6.75001H1.50041C1.30149 6.75001 1.11073 6.67099 0.970076 6.53034C0.829423 6.38969 0.750406 6.19892 0.750406 6.00001Z" fill="white"/>
</svg>
