<svg width="24" height="24" viewBox="0 0 24 24" fill="none" xmlns="http://www.w3.org/2000/svg">
<path fill-rule="evenodd" clip-rule="evenodd" d="M17.7807 6.219C17.8506 6.28867 17.906 6.37143 17.9438 6.46255C17.9816 6.55367 18.0011 6.65135 18.0011 6.75C18.0011 6.84865 17.9816 6.94633 17.9438 7.03745C17.906 7.12857 17.8506 7.21133 17.7807 7.281L7.28073 17.781C7.1399 17.9218 6.94889 18.0009 6.74973 18.0009C6.55056 18.0009 6.35956 17.9218 6.21873 17.781C6.0779 17.6402 5.99878 17.4492 5.99878 17.25C5.99878 17.0508 6.0779 16.8598 6.21873 16.719L16.7187 6.219C16.7884 6.14915 16.8712 6.09374 16.9623 6.05593C17.0534 6.01812 17.1511 5.99866 17.2497 5.99866C17.3484 5.99866 17.4461 6.01812 17.5372 6.05593C17.6283 6.09374 17.7111 6.14915 17.7807 6.219Z" fill="black"/>
<path fill-rule="evenodd" clip-rule="evenodd" d="M6.21888 6.219C6.14903 6.28867 6.09362 6.37143 6.05581 6.46255C6.018 6.55367 5.99854 6.65135 5.99854 6.75C5.99854 6.84865 6.018 6.94633 6.05581 7.03745C6.09362 7.12857 6.14903 7.21133 6.21888 7.281L16.7189 17.781C16.8597 17.9218 17.0507 18.0009 17.2499 18.0009C17.449 18.0009 17.64 17.9218 17.7809 17.781C17.9217 17.6402 18.0008 17.4492 18.0008 17.25C18.0008 17.0508 17.9217 16.8598 17.7809 16.719L7.28088 6.219C7.21121 6.14915 7.12844 6.09374 7.03733 6.05593C6.94621 6.01812 6.84853 5.99866 6.74988 5.99866C6.65122 5.99866 6.55354 6.01812 6.46243 6.05593C6.37131 6.09374 6.28854 6.14915 6.21888 6.219Z" fill="black"/>
</svg>
