<svg width="40" height="40" viewBox="0 0 40 40" fill="none" xmlns="http://www.w3.org/2000/svg">
<path fill-rule="evenodd" clip-rule="evenodd" d="M29.6346 10.365C29.751 10.4811 29.8434 10.619 29.9064 10.7709C29.9694 10.9228 30.0019 11.0856 30.0019 11.25C30.0019 11.4144 29.9694 11.5772 29.9064 11.7291C29.8434 11.8809 29.751 12.0189 29.6346 12.135L12.1346 29.635C11.8999 29.8697 11.5816 30.0016 11.2496 30.0016C10.9177 30.0016 10.5993 29.8697 10.3646 29.635C10.1299 29.4003 9.99805 29.0819 9.99805 28.75C9.99805 28.418 10.1299 28.0997 10.3646 27.865L27.8646 10.365C27.9807 10.2486 28.1187 10.1562 28.2705 10.0932C28.4224 10.0302 28.5852 9.99774 28.7496 9.99774C28.914 9.99774 29.0768 10.0302 29.2287 10.0932C29.3806 10.1562 29.5185 10.2486 29.6346 10.365Z" fill="white"/>
<path fill-rule="evenodd" clip-rule="evenodd" d="M10.365 10.365C10.2486 10.4811 10.1563 10.619 10.0933 10.7709C10.0302 10.9228 9.9978 11.0856 9.9978 11.25C9.9978 11.4144 10.0302 11.5772 10.0933 11.7291C10.1563 11.8809 10.2486 12.0189 10.365 12.135L27.865 29.635C28.0998 29.8697 28.4181 30.0016 28.75 30.0016C29.082 30.0016 29.4003 29.8697 29.635 29.635C29.8698 29.4003 30.0016 29.0819 30.0016 28.75C30.0016 28.418 29.8698 28.0997 29.635 27.865L12.135 10.365C12.0189 10.2486 11.881 10.1562 11.7291 10.0932C11.5773 10.0302 11.4145 9.99774 11.25 9.99774C11.0856 9.99774 10.9228 10.0302 10.771 10.0932C10.6191 10.1562 10.4812 10.2486 10.365 10.365Z" fill="white"/>
</svg>
