<svg width="12" height="14" viewBox="0 0 12 14" fill="none" xmlns="http://www.w3.org/2000/svg">
<path d="M10.4722 2.72229H3.08333C2.92862 2.72229 2.78025 2.78375 2.67085 2.89314C2.56146 3.00254 2.5 3.15091 2.5 3.30562V12.639C2.5 12.7937 2.56146 12.942 2.67085 13.0514C2.78025 13.1608 2.92862 13.2223 3.08333 13.2223H10.4722C10.6269 13.2223 10.7753 13.1608 10.8847 13.0514C10.9941 12.942 11.0556 12.7937 11.0556 12.639V3.30562C11.0556 3.15091 10.9941 3.00254 10.8847 2.89314C10.7753 2.78375 10.6269 2.72229 10.4722 2.72229ZM10.2778 12.4445H3.27778V3.50007H10.2778V12.4445Z" fill="black"/>
<path d="M9.11122 1.36104C9.11122 1.20633 9.04976 1.05796 8.94036 0.948564C8.83097 0.839168 8.6826 0.77771 8.52789 0.77771H1.139C0.984288 0.77771 0.835915 0.839168 0.726518 0.948564C0.617122 1.05796 0.555664 1.20633 0.555664 1.36104V10.6944C0.555664 10.8491 0.617122 10.9975 0.726518 11.1069C0.835915 11.2163 0.984288 11.2777 1.139 11.2777H1.33344V1.55549H9.11122V1.36104Z" fill="black"/>
</svg>
