<svg width="98" height="86" viewBox="0 0 98 86" fill="none" xmlns="http://www.w3.org/2000/svg">
<path d="M96 83.0345H2V16.5136H49.0002L63.5942 2H96V83.0345Z" stroke="#BDBDBD" stroke-width="4" stroke-linecap="round" stroke-linejoin="round"/>
<path d="M30.2608 39.8338C30.2608 40.8145 29.4787 41.5756 28.5562 41.5756C27.6337 41.5756 26.8516 40.8145 26.8516 39.8338C26.8516 38.8532 27.6337 38.092 28.5562 38.092C29.4787 38.092 30.2608 38.8532 30.2608 39.8338Z" fill="#BDBDBD" stroke="#BDBDBD" stroke-width="4"/>
<path d="M72.022 39.8339C72.022 40.8146 71.2399 41.5757 70.3174 41.5757C69.3949 41.5757 68.6128 40.8146 68.6128 39.8339C68.6128 38.8532 69.3949 38.0921 70.3174 38.0921C71.2399 38.0921 72.022 38.8532 72.022 39.8339Z" fill="#BDBDBD" stroke="#BDBDBD" stroke-width="4"/>
<path d="M35.5591 63.5862C35.5591 56.7148 41.7725 51.144 49.4373 51.144C57.102 51.144 63.3155 56.7148 63.3155 63.5862" stroke="#BDBDBD" stroke-width="4" stroke-linecap="round" stroke-linejoin="round"/>
</svg>
