<svg width="22" height="22" viewBox="0 0 22 22" fill="none" xmlns="http://www.w3.org/2000/svg">
<path d="M17 20V18.5H18.5V20H17Z" fill="white"/>
<path d="M12.5 17V15.5H14V17H12.5Z" fill="white"/>
<path d="M12.5 21.5H15.5V20H14V18.5H12.5V21.5Z" fill="white"/>
<path d="M18.5 18.5V15.5H20V18.5H18.5Z" fill="white"/>
<path d="M20 18.5H21.5V21.5H18.5V20H20V18.5Z" fill="white"/>
<path d="M18.5 14V12.5H21.5V15.5H20V14H18.5Z" fill="white"/>
<path d="M17 14H15.5V17H14V18.5H17V14Z" fill="white"/>
<path d="M12.5 14V12.5H15.5V14H12.5Z" fill="white"/>
<path d="M3.5 15.5H6.5V18.5H3.5V15.5Z" fill="white"/>
<path d="M9.5 21.5H0.5V12.5H9.5V21.5ZM2 20H8V14H2V20Z" fill="white"/>
<path d="M15.5 3.5H18.5V6.5H15.5V3.5Z" fill="white"/>
<path d="M21.5 9.5H12.5V0.5H21.5V9.5ZM14 8H20V2H14V8Z" fill="white"/>
<path d="M3.5 3.5H6.5V6.5H3.5V3.5Z" fill="white"/>
<path d="M9.5 9.5H0.5V0.5H9.5V9.5ZM2 8H8V2H2V8Z" fill="white"/>
</svg>
