<svg width="153" height="151" viewBox="0 0 153 151" fill="none" xmlns="http://www.w3.org/2000/svg">
<g opacity="1.00001">
<path fill-rule="evenodd" clip-rule="evenodd" d="M101.415 28.3102C101.293 28.7061 101.348 29.1352 101.566 29.4862C101.785 29.8371 102.144 30.0753 102.552 30.1389L102.569 30.1408L105.108 30.5163L103.992 32.8388L103.987 32.8547C103.679 33.5563 103.977 34.3757 104.663 34.711C105.349 35.0464 106.177 34.7781 106.54 34.1031L106.545 34.0872L106.559 34.0425L107.682 31.7779L109.451 33.4728L109.536 33.5584L109.551 33.5698C110.115 34.1137 111.013 34.0965 111.558 33.5313C112.104 32.9662 112.093 32.0656 111.533 31.5169L111.519 31.5054L109.688 29.7045L111.793 28.5649L111.952 28.4809L111.969 28.4724C112.635 28.0889 112.879 27.2451 112.521 26.5654C112.162 25.8857 111.33 25.6149 110.641 25.9534L110.623 25.9619L108.348 27.1574L107.931 24.8383L107.894 24.621L107.898 24.6083C107.739 23.857 107.016 23.3678 106.262 23.5016C105.507 23.6354 104.993 24.3442 105.097 25.105L105.093 25.1177L105.092 25.1209L105.518 27.6591L103.019 27.3205L102.973 27.3131L102.955 27.3112C102.269 27.2243 101.618 27.646 101.415 28.3102L101.415 28.3102Z" fill="#FF725B"/>
<path fill-rule="evenodd" clip-rule="evenodd" d="M4.22363 14.8132C4.2234 14.8134 4.36375 14.7024 4.60824 14.509C4.85273 14.3156 5.17726 14.059 5.49757 13.8056L5.51095 13.795L7.50122 12.2208L7.19916 12.4597V12.4597C7.12965 12.5147 7.54203 12.1885 8.13342 11.7207C8.72481 11.253 9.28419 10.8105 9.40069 10.7184V10.7184V10.7184L9.72104 10.465L11.4379 9.10704L11.5216 9.04087L11.535 9.03028C12.0834 8.59648 12.7523 8.06739 13.0313 7.8467C13.3104 7.62601 13.0945 7.79675 12.5484 8.22866L12.535 8.23925L10.7479 9.6528L12.0636 8.61218L12.1628 8.53366L12.174 8.52483C12.585 8.19976 12.5736 8.20877 12.1482 8.54521C11.7229 8.88165 11.0368 9.42427 10.5977 9.77164L10.5865 9.78047L9.15629 10.9117L8.30957 11.5814L8.23149 11.6432V11.6432C7.93957 11.8741 7.28469 12.3921 6.74995 12.815C6.21521 13.238 5.99256 13.4141 6.24625 13.2134V13.2134V13.2134L7.1503 12.4984L5.19886 14.0419L5.16205 14.071L5.14866 14.0816C4.61391 14.5045 4.22346 14.8134 4.22375 14.8131L4.22363 14.8132Z" fill="#FF725B"/>
<path fill-rule="evenodd" clip-rule="evenodd" d="M34.8196 101.128C34.5984 101.249 34.4405 101.459 34.3868 101.706C34.3332 101.952 34.3892 102.211 34.5402 102.413L34.547 102.422L35.4964 103.675L34.0235 104.208L34.0146 104.213C33.5823 104.386 33.3648 104.871 33.522 105.311C33.6791 105.752 34.1548 105.991 34.5995 105.852L34.6084 105.847L34.6334 105.834L36.0847 105.329L36.138 106.827L36.139 106.901L36.1404 106.912C36.156 107.392 36.5552 107.769 37.0333 107.757C37.5115 107.746 37.8886 107.348 37.8771 106.869L37.8757 106.858L37.8406 105.288L39.2433 105.695L39.348 105.726L39.3592 105.73C39.8128 105.849 40.2773 105.586 40.4092 105.136C40.5411 104.686 40.2928 104.211 39.8479 104.062L39.8367 104.059L38.3361 103.603L39.1381 102.414L39.214 102.303L39.2211 102.299C39.4707 101.904 39.3625 101.38 38.9763 101.115C38.5902 100.849 38.0647 100.937 37.7875 101.313L37.7804 101.317L37.7787 101.318L36.8877 102.606L35.9403 101.386L35.923 101.363L35.9162 101.355C35.6533 101.022 35.1904 100.927 34.8196 101.129L34.8196 101.128Z" fill="#FF725B"/>
<path fill-rule="evenodd" clip-rule="evenodd" d="M25.1761 66.9968C25.5423 66.9968 25.8252 67.2873 25.8252 67.6633C25.8252 68.0392 25.5423 68.3296 25.1761 68.3296C24.81 68.3296 24.5271 68.0392 24.5271 67.6633C24.5271 67.2873 24.81 66.9968 25.1761 66.9968ZM25.1761 65.6642C24.1084 65.6642 23.229 66.567 23.229 67.6633C23.229 68.7594 24.1084 69.6623 25.1761 69.6623C26.2438 69.6623 27.1232 68.7594 27.1232 67.6633C27.1232 66.567 26.2438 65.6642 25.1761 65.6642Z" fill="#98CFE3"/>
<path fill-rule="evenodd" clip-rule="evenodd" d="M122.38 67.5051C122.919 67.5051 123.336 67.9332 123.336 68.4874C123.336 69.0415 122.919 69.4694 122.38 69.4694C121.84 69.4694 121.423 69.0415 121.423 68.4874C121.423 67.9332 121.84 67.5051 122.38 67.5051ZM122.38 65.5408C120.806 65.5408 119.51 66.8716 119.51 68.4874C119.51 70.1029 120.806 71.4338 122.38 71.4338C123.953 71.4338 125.25 70.1029 125.25 68.4874C125.25 66.8716 123.953 65.5408 122.38 65.5408Z" fill="#98CFE3"/>
<path fill-rule="evenodd" clip-rule="evenodd" d="M108.235 117.091L107.434 115.632L108.873 114.79L109.676 116.253L108.235 117.091ZM107.542 119.652C107.812 119.722 108.099 119.681 108.343 119.538L111.656 117.605C112.172 117.303 112.358 116.635 112.071 116.11L110.225 112.748C109.936 112.224 109.285 112.044 108.768 112.344L105.455 114.276C104.939 114.578 104.753 115.247 105.04 115.772L106.886 119.134C107.026 119.391 107.263 119.578 107.542 119.652Z" fill="#98CFE3"/>
<path fill-rule="evenodd" clip-rule="evenodd" d="M43.8449 35.537L45.1661 34.4182L46.2905 35.7375L44.9661 36.8589L43.8449 35.537ZM41.126 35.3313C41.1069 35.6241 41.2029 35.9129 41.3937 36.1362L43.9777 39.1752C44.3811 39.6485 45.0922 39.7068 45.5674 39.3055L48.6114 36.7277C49.0855 36.3252 49.1437 35.6155 48.7414 35.1411L46.1578 32.1022C45.7543 31.6289 45.0432 31.5706 44.568 31.9719L41.5238 34.5496C41.2909 34.7459 41.1474 35.0278 41.126 35.3313Z" fill="#98CFE3"/>
<path d="M75.9094 47.7123C90.5349 47.7123 102.41 59.587 102.41 74.2125C102.41 88.838 90.5349 100.713 75.9094 100.713C61.2839 100.713 49.4092 88.838 49.4092 74.2125C49.4092 59.587 61.2839 47.7123 75.9094 47.7123Z" fill="#61DDB3"/>
<path d="M63.1777 72.4615L60.4624 75.1768L71.8498 86.5641L91.3409 67.073L88.6256 64.3577L71.8498 81.1336L63.1777 72.4615Z" fill="white"/>
</g>
</svg>
